:SAMPLES-PER-SECOND 30
:FULLY-SPECIFIED
:DEGREES
636
root  -25.4042 34.2334 -16.2424 -168.131 32.9812 179.879
RightUpLeg  -14.0471 -15.2824 -10.593
RightLeg  28.9394 -8.43644 -3.96563
RightFoot  2.93378 0.0249194 -0.259651
RightToes  -19.4091 -0.0781892 -0.172054
Spine  -0.735724 0.948519 -1.1263
Spine1  -1.53961 1.9828 -1.58516
HEad  -63.533 5.33576 7.68828
LeftShoulder1  -1.94126e-019 -3.10601e-018 -2.51263e-017
LeftArm  -10.5956 25.0946 -77.1568
LeftForeArm  22.2631 -32.6496 -5.90886
LeftHand  -0.29797 1.39328 8.5633
RightShoulder  -4.96962e-017 0 -2.36833e-017
RightArm  -28.1113 -23.0726 72.339
RightForeArm  49.006 44.6801 7.72475
RightHand  -0.883288 -2.13175 -30.9242
LeftUpLeg  -18.0717 -3.07195 1.72831
LeftLeg  23.7103 8.80538 3.19047
LeftFoot  -4.26674 -0.0266061 -0.552687
LeftToes  -21.1791 1.34695e-006 1.12385e-007
637
root  -25.4681 34.417 -16.884 -167.808 31.7582 -179.759
RightUpLeg  -15.8525 -15.9015 -9.1169
RightLeg  32.3984 -5.55241 -3.04556
RightFoot  1.91428 0.00917479 -0.00917307
RightToes  -19.6177 -0.0796636 -0.174208
Spine  -0.816763 1.00474 -1.03598
Spine1  -1.68957 2.08756 -1.40851
HEad  -63.5179 4.62993 8.28552
LeftShoulder1  -1.94126e-019 -3.10601e-018 -2.51263e-017
LeftArm  -10.145 25.1143 -75.4695
LeftForeArm  21.9918 -38.0111 -7.37807
LeftHand  -0.344695 0.954483 8.99384
RightShoulder  -4.96962e-017 0 -2.36833e-017
RightArm  -28.969 -24.3116 72.9012
RightForeArm  48.608 40.6318 6.5193
RightHand  -0.785953 -2.20568 -28.229
LeftUpLeg  -15.9468 -4.71451 1.52532
LeftLeg  20.5111 9.41475 2.82968
LeftFoot  -3.70156 -0.0211218 -0.492114
LeftToes  -19.8763 1.34695e-006 1.12385e-007
638
root  -25.4921 34.5609 -17.4834 -167.517 30.3011 -179.558
RightUpLeg  -17.6087 -16.1886 -7.34424
RightLeg  35.0579 -5.11098 -3.12444
RightFoot  0.797112 0.00261108 0.116468
RightToes  -19.8852 -0.08082 -0.175899
Spine  -0.896974 0.887125 -0.951838
Spine1  -1.8317 1.84908 -1.24764
HEad  -63.4302 3.68784 9.12917
LeftShoulder1  -1.94126e-019 -3.10601e-018 -2.51263e-017
LeftArm  -9.94998 24.3105 -74.2999
LeftForeArm  23.0325 -45.5234 -9.78529
LeftHand  -0.343183 1.50318 10.1597
RightShoulder  -4.96962e-017 0 -2.36833e-017
RightArm  -30.1813 -25.7359 73.7396
RightForeArm  49.7408 35.9683 5.21944
RightHand  -0.837622 -1.86324 -27.2031
LeftUpLeg  -13.8235 -6.12407 1.31867
LeftLeg  17.1186 9.54864 2.26713
LeftFoot  -3.04599 -0.0143973 -0.379971
LeftToes  -18.8777 1.34695e-006 1.12385e-007
639
root  -25.4812 34.6176 -18.0369 -167.339 28.726 -179.432
RightUpLeg  -19.4769 -16.4876 -5.37008
RightLeg  37.3906 -6.77108 -4.51468
RightFoot  -0.39684 -0.00168194 0.269063
RightToes  -19.6785 -0.0796735 -0.174232
Spine  -0.876577 0.619675 -0.890249
Spine1  -1.76765 1.31967 -1.13607
HEad  -63.4641 2.17774 9.83701
LeftShoulder1  -1.94126e-019 -3.10601e-018 -2.51263e-017
LeftArm  -9.71395 22.4809 -73.4265
LeftForeArm  26.5152 -54.6688 -13.7051
LeftHand  -0.355689 1.70288 11.0881
RightShoulder  -4.96962e-017 0 -2.36833e-017
RightArm  -31.4016 -26.924 74.7071
RightForeArm  49.8643 31.1225 4.06939
RightHand  -0.845764 -1.76169 -26.7153
LeftUpLeg  -12.1004 -6.73356 1.16974
LeftLeg  14.5636 8.74738 1.67254
LeftFoot  -2.74157 -0.0106946 -0.285398
LeftToes  -19.104 1.34695e-006 1.12385e-007
640
root  -25.4398 34.5845 -18.5736 -167.336 27.1175 -179.388
RightUpLeg  -21.4971 -17.2706 -3.29729
RightLeg  39.5643 -9.52649 -6.84568
RightFoot  -1.81617 -0.000543052 0.611594
RightToes  -15.7713 -0.0591609 -0.141983
Spine  -0.744301 0.152758 -0.84404
Spine1  -1.47535 0.397135 -1.05306
HEad  -63.3123 0.0671034 10.2207
LeftShoulder1  -1.94126e-019 -3.10601e-018 -2.51263e-017
LeftArm  -9.60757 19.8057 -72.8071
LeftForeArm  33.21 -64.8538 -21.092
LeftHand  -0.358692 1.70683 11.1953
RightShoulder  -4.96962e-017 0 -2.36833e-017
RightArm  -31.995 -27.6396 75.6021
RightForeArm  49.321 26.8 3.16397
RightHand  -0.789351 -1.72845 -24.7486
LeftUpLeg  -11.1209 -6.98141 1.03836
LeftLeg  13.8199 7.46173 1.32829
LeftFoot  -3.20624 -0.012473 -0.284144
LeftToes  -19.5155 1.34695e-006 1.12385e-007
641
root  -25.3875 34.4947 -19.0894 -167.44 26.0308 -179.532
RightUpLeg  -23.9184 -18.0508 -1.24848
RightLeg  41.1524 -11.2866 -8.55073
RightFoot  -3.78643 0.0187169 1.20632
RightToes  -14.6437 -0.0536544 -0.132424
Spine  -0.587952 -0.31282 -0.869713
Spine1  -1.13572 -0.521772 -1.11152
HEad  -62.6699 -2.94116 10.6357
LeftShoulder1  -1.94126e-019 -3.10601e-018 -2.51263e-017
LeftArm  -9.56364 15.9756 -72.4457
LeftForeArm  47.6107 -73.7741 -35.511
LeftHand  -0.390222 1.50137 11.5727
RightShoulder  -4.96962e-017 0 -2.36833e-017
RightArm  -32.0143 -27.8859 76.3674
RightForeArm  49.2034 22.7487 2.35623
RightHand  -0.698071 -1.73416 -21.9571
LeftUpLeg  -10.7037 -7.0769 0.700195
LeftLeg  14.3792 6.46011 1.21554
LeftFoot  -4.22837 -0.0186975 -0.344959
LeftToes  -19.5978 1.34695e-006 1.12385e-007
642
root  -25.3001 34.3816 -19.6188 -167.482 25.7714 -179.614
RightUpLeg  -26.4909 -18.3956 0.919349
RightLeg  41.5239 -11.3771 -8.73197
RightFoot  -5.43251 0.0475868 1.63766
RightToes  -13.0247 -0.0515426 -0.118513
Spine  -0.422144 -0.651472 -0.840542
Spine1  -0.779528 -1.18505 -1.08057
HEad  -61.5829 -6.28646 10.5089
LeftShoulder1  -1.94126e-019 -3.10601e-018 -2.51263e-017
LeftArm  -9.65323 11.0064 -72.5117
LeftForeArm  71.986 -78.854 -58.3854
LeftHand  -0.539513 0.52908 12.9171
RightShoulder  -4.96962e-017 0 -2.36833e-017
RightArm  -32.025 -27.7098 76.8015
RightForeArm  50.4251 19.0152 1.59564
RightHand  -0.658504 -1.31525 -18.6411
LeftUpLeg  -10.3858 -6.91544 0.324376
LeftLeg  15.4335 6.03598 1.25095
LeftFoot  -5.51717 -0.0297839 -0.456605
LeftToes  -19.0949 1.34695e-006 1.12385e-007
643
root  -25.1578 34.2619 -20.1671 -167.451 26.9872 -179.567
RightUpLeg  -29.056 -18.1692 3.32006
RightLeg  40.4985 -10.3542 -7.68137
RightFoot  -6.31752 0.058038 1.67471
RightToes  -13.9319 -0.0511198 -0.126334
Spine  -0.254573 -0.702903 -0.765674
Spine1  -0.423274 -1.28706 -0.966932
HEad  -59.9389 -9.21816 9.57283
LeftShoulder1  -1.94126e-019 -3.10601e-018 -2.51263e-017
LeftArm  -10.1789 5.9554 -72.7531
LeftForeArm  96.2506 -80.4484 -80.406
LeftHand  -0.757283 -0.587147 14.8055
RightShoulder  -4.96962e-017 0 -2.36833e-017
RightArm  -32.6283 -27.394 77.0425
RightForeArm  52.3318 17.0586 1.17596
RightHand  -0.699176 -0.379213 -16.1841
LeftUpLeg  -9.80838 -5.31364 -0.102195
LeftLeg  16.4127 5.67556 1.2776
LeftFoot  -6.74519 -0.0420143 -0.551411
LeftToes  -19.1536 1.34695e-006 1.12385e-007
644
root  -24.9521 34.1533 -20.7602 -167.357 28.6815 -179.482
RightUpLeg  -31.2536 -18.8908 6.13244
RightLeg  38.2077 -9.45918 -6.46678
RightFoot  -7.18634 0.0659405 1.66238
RightToes  -14.3685 -0.0523393 -0.130074
Spine  -0.136487 -0.850282 -0.649006
Spine1  -0.169185 -1.59143 -0.754067
HEad  -57.9914 -11.0859 8.32862
LeftShoulder1  -1.94126e-019 -3.10601e-018 -2.51263e-017
LeftArm  -11.1173 2.00782 -72.8171
LeftForeArm  110.66 -80.6191 -93.584
LeftHand  -0.874125 -0.808689 16.4615
RightShoulder  -4.96962e-017 0 -2.36833e-017
RightArm  -33.5141 -26.7634 76.9961
RightForeArm  54.1204 15.1297 1.14862
RightHand  -0.676616 -0.279389 -15.3705
LeftUpLeg  -9.127 -3.19268 -0.526063
LeftLeg  17.373 5.32496 1.29264
LeftFoot  -7.9003 -0.0541132 -0.622119
LeftToes  -18.6492 1.34695e-006 1.12385e-007
645
root  -24.6829 34.0592 -21.3813 -167.135 30.5435 -179.344
RightUpLeg  -33.1521 -20.646 9.48435
RightLeg  34.8934 -8.49591 -5.12769
RightFoot  -8.40283 0.0772236 1.65247
RightToes  -15.2981 -0.0568274 -0.137985
Spine  -0.0426637 -1.14269 -0.468762
Spine1  0.0260184 -2.19229 -0.400501
HEad  -56.3017 -11.7505 7.29426
LeftShoulder1  -1.94126e-019 -3.10601e-018 -2.51263e-017
LeftArm  -12.3017 -0.337924 -72.488
LeftForeArm  115.264 -80.5116 -98.6533
LeftHand  -0.859686 -0.488482 17.0464
RightShoulder  -4.96962e-017 0 -2.36833e-017
RightArm  -35.1915 -25.8214 76.7497
RightForeArm  55.6494 13.5386 1.31935
RightHand  -0.631474 -0.515332 -15.0238
LeftUpLeg  -8.2861 -1.31815 -0.884187
LeftLeg  17.9745 5.4203 1.37598
LeftFoot  -8.85697 -0.0689762 -0.729097
LeftToes  -18.3177 1.34695e-006 1.12385e-007
646
root  -24.3561 33.9693 -22.0098 -166.499 32.4377 -179.101
RightUpLeg  -34.9464 -22.4523 13.3107
RightLeg  30.9918 -7.1514 -3.68687
RightFoot  -9.54415 0.0768088 1.50902
RightToes  -16.9309 -0.0650188 -0.151699
Spine  -0.0231411 -1.45973 -0.195935
Spine1  0.0623606 -2.84109 0.147528
HEad  -55.769 -11.4019 6.84656
LeftShoulder1  -1.94126e-019 -3.10601e-018 -2.51263e-017
LeftArm  -13.4535 -1.15526 -72.0779
LeftForeArm  110.899 -80.4444 -96.6956
LeftHand  -0.791748 -0.173839 16.5793
RightShoulder  -4.96962e-017 0 -2.36833e-017
RightArm  -36.0502 -25.1005 76.5068
RightForeArm  55.1364 13.0222 1.38929
RightHand  -0.486058 -1.51696 -14.4534
LeftUpLeg  -7.77689 0.0940194 -1.15759
LeftLeg  18.6558 6.00331 1.59962
LeftFoot  -9.51459 -0.087815 -0.893639
LeftToes  -17.6395 1.34695e-006 1.12385e-007
647
root  -23.9811 33.8767 -22.6899 -165.589 34.6378 -179.059
RightUpLeg  -36.3836 -23.0909 16.5257
RightLeg  27.6789 -5.45172 -2.42821
RightFoot  -9.66962 0.048628 1.15137
RightToes  -19.4992 -0.0786845 -0.172783
Spine  -0.132386 -1.6148 0.0363458
Spine1  -0.154212 -3.15032 0.615875
HEad  -55.9729 -10.6861 6.83799
LeftShoulder1  -1.94126e-019 -3.10601e-018 -2.51263e-017
LeftArm  -14.0013 -0.749978 -71.6713
LeftForeArm  97.8299 -80.3861 -85.6269
LeftHand  -0.728421 0.0470037 15.8807
RightShoulder  -4.96962e-017 0 -2.36833e-017
RightArm  -36.0579 -24.8078 76.282
RightForeArm  54.1609 12.99 1.40322
RightHand  -0.420423 -2.08037 -14.5468
LeftUpLeg  -7.61946 1.22942 -1.69365
LeftLeg  19.5251 6.90855 1.95225
LeftFoot  -9.71544 -0.105273 -1.07712
LeftToes  -18.0344 1.34695e-006 1.12385e-007
